<?xml version="1.0" encoding="utf-8"?>
<!-- Generator: Adobe Illustrator 24.2.1, SVG Export Plug-In . SVG Version: 6.00 Build 0)  -->
<svg version="1.1" id="Camada_1" xmlns="http://www.w3.org/2000/svg" xmlns:xlink="http://www.w3.org/1999/xlink" x="0px" y="0px"
	 viewBox="0 0 338 170" style="enable-background:new 0 0 338 170;" xml:space="preserve">
<style type="text/css">
	.st0{fill:#282C65;stroke:#282C65;stroke-width:2;stroke-miterlimit:10;}
	.st1{fill:#282C65;}
	.st2{fill:#F4BB19;stroke:#2F4895;stroke-width:2;stroke-miterlimit:10;}
	.st3{fill:#F5C7DC;}
	.st4{fill:#D4ACBE;}
	.st5{fill:#0D121A;}
	.st6{fill:#FFFFFF;}
	.st7{fill:#30B3A7;}
	.st8{fill:#923114;}
	.st9{fill:#EC8498;}
	.st10{fill:#FCECEC;}
	.st11{fill:#F5C6CC;}
	.st12{fill:#1FACE3;}
</style>
<g>
	<g>
		<path class="st0" d="M26.8,145.7l-2.7-84.3l-7.1,0.2l-0.3-11.3l20.9-0.5c7.7-0.2,13.9,1.8,18.4,6c4.5,4.2,6.9,10.1,7.1,17.5
			c0.1,5.5-1,10.1-3.4,13.7c-2.4,3.6-5.9,5.7-10.3,6.3l0,0.2c5.2,0.9,9.2,3.4,12.2,7.5c3,4.1,4.6,9.2,4.7,15.3
			c0.2,8.2-2,14.7-6.6,19.5c-4.6,4.8-11.3,7.3-20,7.5l-12.9,1 M37.3,61.1L38,88.8c2.7-0.1,4.8-0.4,6.4-1c1.6-0.5,2.9-1.8,3.9-3.8
			c1-2,1.5-5,1.4-9.2c-0.1-5.1-1-8.7-2.6-10.8C45.5,62,42.2,61,37.3,61.1z M38.2,100.1l0.7,32c4.9-0.1,8.4-1.4,10.5-4
			c2.1-2.5,3.1-6.6,3-12c-0.1-4.9-0.9-8.5-2.3-10.8c-1.4-2.4-3.1-3.8-4.9-4.4C43.4,100.3,41.1,100.1,38.2,100.1z"/>
		<path class="st0" d="M226.8,143.1l-11.8-0.6l0.3-5.6l-0.3,0c-1.3,2-2.8,3.5-4.3,4.5c-1.5,1-3.4,1.4-5.8,1.3
			c-4.8-0.2-8.3-2.8-10.6-7.6s-3.3-11.7-2.9-20.5c0.5-10.8,2-18.4,4.4-22.9c2.4-4.5,6.3-6.6,11.5-6.3c3.9,0.2,7.1,2,9.8,5.4l0.3,0
			l1.5-30.6l-7.5-0.4l0.5-11.3l19.2,0.9l-4,84.5L226.8,143.1z M216.2,117.4l0.3-7.4c0.2-3.8-0.2-6.6-1.1-8.3
			c-0.9-1.8-2.5-2.7-4.8-2.8c-2.5-0.1-4.1,0.8-5,2.8c-0.9,2-1.5,5.6-1.7,10.9l-0.5,10.6c-0.3,5.8,1.6,8.8,5.7,9
			c2.6,0.1,4.4-0.7,5.3-2.6C215.3,127.6,215.9,123.6,216.2,117.4z"/>
		<path class="st0" d="M126.1,138.6c-5.6-2.3-8.8-6-9.8-11c-0.9-5,0.3-11.6,3.7-19.7c3.5-8.3,7.3-13.8,11.6-16.5
			c4.2-2.7,9.1-2.9,14.6-0.6c10.9,4.6,13,14.9,6.2,30.8C145.7,137.5,137,143.2,126.1,138.6z M141.8,97.9c-2-0.7-3.7,0-5.1,2
			c-1.4,2-3.3,6.3-5.5,13.1c-1.7,4.9-2.7,8.6-3.2,11.1c-0.5,2.5-0.5,4.3-0.1,5.3c0.4,1,1.3,1.8,2.6,2.2c2.3,0.8,4.1-0.1,5.5-2.4
			c1.4-2.4,3.2-6.6,5.2-12.7c2.3-6.7,3.4-11.3,3.5-13.8C144.8,100.1,143.8,98.6,141.8,97.9z"/>
		<path class="st1" d="M82.8,133.2c1.1,0.2,2.5,1,4.2,2.5c1.8,1.5,2.4,2.3,1.9,2.6c-1.1,0.6-3.7,1-7.9,1c-4.3,0-7.3-0.3-8.9-1.1
			c-0.4-0.2-0.6-0.6-0.4-1.2c0.2-0.6,0.5-1.2,1.1-1.6c0.9-0.7,2.5-1.3,5-1.7C80.2,133.2,81.8,133,82.8,133.2"/>
		<path class="st1" d="M78,133.6c0.9-0.6,2.7-1,5.3-1l5.3,0.7c1.3,0.6,2.1,1.3,2.4,2.2c0.4,1.1-0.3,2.1-2.1,2.9l-1.7,0.4l-2.5,0.3
			c0.2-0.4-0.4-1.4-1.8-2.8C81.5,134.7,79.8,133.8,78,133.6"/>
		<path class="st1" d="M88.2,133.4c0.2-0.2,0.4-0.1,0.9,0.1c1.6,0.9,2.4,1.9,2.4,2.9c0,1-0.6,1.7-2,2.2c-3.5,1.1-7.2,1.6-11.3,1.3
			c-3.8-0.2-6.2-0.9-7-2c-0.5-0.9,0-1.8,1.5-2.9c1.7-1.1,3.9-1.8,6.8-2.2l1.6-0.1l1.6,0.1l0.9,0.2c0.4,0.1,0.4,0.2,0.3,0.2
			c-4,0.1-7.1,0.6-9.4,1.7c-2,0.9-2.7,1.6-2.3,2.3c0.8,1.1,3.4,1.6,7.7,1.7c4.2,0.1,7.3-0.3,9.5-1.1c1-0.4,1.5-0.9,1.5-1.7
			c-0.1-0.8-0.8-1.5-2.3-2.2C88.2,133.8,88,133.6,88.2,133.4"/>
		<path class="st1" d="M97.8,132.8l5,0.8l4.8,1c0.1,0,0.8,0.3,2,1.1c1.2,0.8,1.8,1.3,2.1,1.5c1.1,1.2,1.7,2.4,1.8,3.5
			c0.1,0.8-0.1,1.3-0.4,1.3c-3,0.2-6.3-0.7-9.8-2.7c-1.8-1-3.6-2.3-5.4-3.9c-0.5-0.4-0.7-1-0.5-1.6L97.8,132.8l-0.4,0l0.4-0.3
			L97.8,132.8"/>
		<path class="st1" d="M98.2,132.9c2.1-0.5,3.9-0.5,5.2-0.2c0.7,0.2,2.1,0.7,4.1,1.7c0.5,0.2,1.1,0.7,1.9,1.3s1,0.9,0.6,0.7
			l-1.5-0.5c-0.8-0.2-1.6-0.1-2.5,0.2c-1.7,0.6-2.7,1.6-3,2.9c-0.7-0.1-1.6-0.5-2.6-1.1c-1.6-1-2.5-2.2-2.9-3.7
			c-0.1-0.3,0-0.5,0.1-0.8C97.9,133.1,98,132.9,98.2,132.9"/>
		<path class="st1" d="M99.6,131.9c3.6,0.1,7.1,1.4,10.6,3.7c1.3,0.9,2.3,1.8,3.1,3c0.8,1.2,1.1,2.2,0.9,3.1
			c-0.1,0.3-0.3,0.5-0.6,0.7c-0.3,0.2-0.6,0.3-0.9,0.3c-0.7,0.1-1.7,0-2.8-0.3c-2.3-0.5-4.6-1.5-7.1-2.8l-2.4-1.4
			c-0.9-0.6-1.6-1.2-2.1-1.8c-0.4-0.5-0.7-1-0.9-1.6c-0.2-0.7-0.2-1.3,0.1-1.7c0.1-0.1,0.2-0.1,0.3-0.1l0,0L98,133l-0.1,0.6
			c0,0.7,0.1,1.3,0.5,1.7c0.5,0.7,1.3,1.3,2.2,2c0.6,0.4,1.4,0.9,2.6,1.5c2.1,1.1,4.3,1.9,6.4,2.4l2.4,0.4l0.9,0l0.4-0.2
			c0.1-0.6-0.2-1.4-1-2.5c-0.8-1.2-1.8-2.1-2.9-2.9c-1.5-1-2.8-1.7-4-2.2c-1.1-0.4-2.8-0.8-5.2-1.2c-0.2,0-0.4-0.2-0.7-0.4
			C99.3,132,99.3,131.9,99.6,131.9"/>
		<path class="st1" d="M113.2,87.2c6.2,6,8.8,13.4,7.9,22.1c-0.9,8.8-4.7,15.5-11.4,20.3c-6.3,4.5-13.7,6.3-22.3,5.4
			c-8.7-0.9-15.6-4.4-20.5-10.6c-4.7-5.9-6.7-12.8-5.9-20.7c0.9-8.4,4.3-15.1,10.2-19.9C77.1,79,84,77,91.9,77.8
			C100.5,78.7,107.6,81.9,113.2,87.2"/>
		<path class="st1" d="M114.3,76.3c0.7,5.3,0.7,9.2,0,11.8c-0.6-0.7-1.6-1.5-2.8-2.6c-1.5-1.2-2.6-2-3.3-2.3
			c-0.4-1.1-0.9-2.3-1.5-3.5c-0.7-1.3-1.5-2.4-2.2-3.1c-0.5-0.5-1.2-1.1-2.2-1.8c-1.1-0.9-2.2-1.5-3-2c2.7-1.7,5.1-2.9,7.1-3.8
			c2.5-1.1,4.2-1.4,5.1-1.1C112.6,68.2,113.5,71,114.3,76.3"/>
		<path class="st1" d="M121.3,105.1l2-0.4c1.3-0.2,2-0.1,2.1,0.2c0.2,0.6-0.1,1.8-0.9,3.6c-1,2.2-2.3,4-4,5.4l0.7-4.8l0.2-2.7
			L121.3,105.1"/>
		<path class="st1" d="M83.2,95.9c3.4,0.4,6.1,1.8,8,4.3c1.6,2.2,2.4,4.4,2.1,6.6c-0.4,3.5-1.8,6.2-4.4,8.3c-2.4,2-5.1,2.8-8.1,2.5
			c-2.7-0.3-5-1.7-6.7-4.3c-1.7-2.5-2.4-5.1-2.1-8c0.3-2.7,1.5-5.1,3.6-7C77.9,96.4,80.4,95.6,83.2,95.9"/>
		<path class="st1" d="M108.2,95c0.9-1.2,1.9-1.7,2.8-1.6c2,0.2,3.7,1.5,5.2,4c1.4,2.4,1.9,4.8,1.7,7.2c-0.3,2.7-0.7,4.6-1.3,5.8
			c-0.9,1.7-2.2,2.4-3.9,2.2c-2-0.2-3.7-1.7-4.9-4.6c-1.2-2.7-1.6-5.4-1.3-8.3C106.6,97.8,107.2,96.2,108.2,95"/>
		<path class="st1" d="M83.8,97.1c2.2,0.2,4.1,1.2,5.6,2.9c1.6,1.8,2.3,3.8,2.1,6.1c-0.3,2.7-1.4,4.8-3.4,6.3
			c-1.8,1.3-3.9,1.9-6.3,1.6c-2-0.2-3.7-1.2-5.1-3.1c-1.4-1.8-2-3.7-1.8-5.7c0.3-2.5,1.2-4.5,2.9-6.1C79.6,97.6,81.6,96.9,83.8,97.1
			"/>
		<path class="st1" d="M109.1,95.6c0.7-0.9,1.3-1.3,2-1.2c1.7,0.2,3.2,1.2,4.4,3.2c1.2,2,1.7,4.2,1.5,6.7c-0.2,1.8-0.6,3.3-1.3,4.4
			c-0.7,1.1-1.5,1.6-2.5,1.5c-1.6-0.2-3-1.4-4.1-3.8c-1.1-2.3-1.5-4.6-1.3-7C107.9,97.8,108.3,96.6,109.1,95.6"/>
		<path class="st1" d="M111.5,85.6c-1.5-1.1-2.6-1.9-3.4-2.4c-0.5-1.5-1-2.6-1.4-3.4c-0.3-0.5-0.7-1.2-1.4-2.1l-0.9-1.1l1-1.3
			c0.7-1,1.4-1.7,2-2.1c0.9-0.7,1.9-1.4,2.8-1.9l0.8,2.1c0.6,1.7,0.9,3.4,1,5c0.1,1.6,0.1,3.3-0.1,5.1L111.5,85.6"/>
		<path class="st1" d="M102.8,115.2c-1.4-1.2-2.7-1.8-3.6-2l-1.2,0l-0.4,0.1l0-0.5c0-0.3,0.1-0.5,0.2-0.5l1.5-0.1
			c1-0.1,1.9-0.2,2.6-0.4l2.4-0.7c0.7-0.2,1.1-0.3,1.1-0.2l0.4,1.4c0.2,1,0.2,1.8,0.2,2.5l-0.7,4.7l-0.8-1.7
			C103.9,116.5,103.3,115.7,102.8,115.2"/>
		<path class="st1" d="M102.7,115.1c0.8,0.9,1.5,2,2,3.3c0.3,0.6,0.4,1.2,0.5,1.6l-0.9,2.7c-0.8,1.8-1.6,2.6-2.4,2.5
			c-0.9-0.1-1.7-0.9-2.4-2.3c-0.6-1.1-1-2.5-1.4-4.2c-0.3-1.2-0.4-2.4-0.5-3.8l-0.1-1.7l1.9,0.1
			C100.8,113.5,101.9,114.1,102.7,115.1"/>
		<path class="st1" d="M61.6,112.7c-0.6-2.8-0.8-5.4-0.6-7.8c-0.1,2,0.3,4.4,1.3,7.1c1.1,3,2.8,5.9,5,8.6
			c5.5,6.7,12.6,10.5,21.2,11.4c8.9,0.9,16.6-1.2,23.1-6.4c2.5-2,4.6-4.2,6.2-6.8c1.5-2.2,2.4-4.2,2.7-5.9c-0.3,2.4-1.1,5-2.7,7.7
			c-1.7,2.9-3.8,5.4-6.5,7.7c-6.6,5.5-14.7,7.7-24.2,6.7c-9.8-1-17.1-5.3-21.8-12.8C63.6,119.3,62.4,116.1,61.6,112.7"/>
		<path class="st1" d="M125.4,105l-0.2,1.4c-0.3,1.2-0.8,2.4-1.4,3.7c-0.7,1.3-1.5,2.2-2.3,2.9l-1.1,0.7l1.1-4.6
			C123.2,108.1,124.5,106.7,125.4,105"/>
		<path class="st1" d="M80.4,126.8c0.3-0.4,0.8-0.5,1.6-0.2c1.4,0.6,3.1,0.8,5.3,0.7c2.3-0.1,4.4-0.7,6.4-1.5l-0.3,0.7
			c-0.4,0.6-1,1.1-2,1.6c-0.8,0.4-2.2,0.7-4.3,1.1c-1.1,0.2-2.1,0.2-2.9,0.1c-1.1-0.2-2.2-0.6-3.2-1.2
			C80.3,127.6,80.1,127.2,80.4,126.8"/>
		<path class="st1" d="M120.5,109.3c0.9-8.2-1.4-15.2-6.8-21c-5.4-5.8-12.7-9.2-22.1-10.1c-3.6-0.4-7.2-0.1-10.6,1
			c-3.4,1-6.5,2.7-9.3,5c-2.8,2.4-5.1,5.2-6.8,8.5c-1.7,3.3-2.8,6.9-3.2,10.9c-0.4,3.7-0.1,7.3,0.9,10.8c1,3.5,2.6,6.7,4.9,9.6
			c2.4,3,5.3,5.4,8.7,7.2c3.4,1.8,7.1,3,11.2,3.4c4.2,0.4,8.1,0.2,11.9-0.7c3.8-0.9,7.2-2.4,10.1-4.5c3.2-2.3,5.7-5.1,7.5-8.5
			C118.9,117.4,120.1,113.6,120.5,109.3 M114.4,87.9c5.5,6,7.8,13.1,7,21.6c-0.9,8.6-4.5,15.3-10.9,20.1c-6.3,4.8-14.1,6.8-23.2,5.8
			c-8.8-0.9-15.7-4.5-20.6-10.7c-4.8-6-6.8-13.1-5.9-21.2c0.9-8.8,4.5-15.6,10.7-20.5c5.8-4.5,12.6-6.4,20.3-5.6
			C101.3,78.4,108.9,81.9,114.4,87.9"/>
		<path class="st1" d="M114.8,77.2c0.6,5.5,0.6,9.2-0.3,11.1l-0.2,0.2l-0.3,0c-0.2-0.1-0.3-0.3-0.2-0.5c0.8-1.9,0.8-5.4,0.2-10.7
			c-0.7-5.4-1.6-8.4-2.8-9.1c-0.6-0.3-2,0-4.4,0.9c-2.6,1-5.2,2.4-7.8,4.2l-0.3,0.1l-0.2-0.2l-0.1-0.3l0.2-0.2
			c2.6-1.8,5.2-3.2,7.9-4.2c2.6-1,4.4-1.3,5.2-0.9C113.1,68.3,114.1,71.6,114.8,77.2"/>
		<path class="st1" d="M110.8,70.7l0.6,0.1c0,0.1-0.2,0.3-0.7,0.4c-0.6,0.2-1.5,0.8-2.7,1.8c-1.4,1.2-2.6,2.5-3.6,4
			c-0.1,0.1-0.2,0-0.4-0.2c-0.2-0.2-0.3-0.4-0.2-0.4c1.1-1.6,2.4-2.9,3.9-4.1C109.1,71.3,110.1,70.8,110.8,70.7"/>
		<path class="st1" d="M112.3,78.4c0.3,2.9,0.3,5.3-0.2,7.3l-0.5,0c-0.3-0.3-0.4-0.5-0.3-0.6c0.5-1.8,0.6-4.1,0.2-6.8
			c-0.3-2.4-0.8-4.7-1.6-6.9c0.3-0.2,0.5-0.2,0.5-0.2C111.3,73.2,111.9,75.7,112.3,78.4"/>
		<path class="st1" d="M106.9,99.7c-0.3,3.2,0.1,6.1,1.4,8.7c1.2,2.4,2.6,3.7,4.3,3.9c2.7,0.3,4.3-2,4.8-6.9
			c0.3-2.8-0.2-5.4-1.4-7.8c-1.3-2.4-2.9-3.7-4.7-3.9c-0.9-0.1-1.7,0.3-2.5,1.3C107.7,96.1,107.1,97.7,106.9,99.7 M106.1,99.6
			c0.2-2.1,0.9-3.8,2-5c1-1.1,2.1-1.6,3.2-1.5c2.1,0.2,3.9,1.6,5.3,4.1c1.4,2.5,2,5.3,1.7,8.3c-0.3,3-1.1,5.1-2.4,6.3
			c-0.9,0.9-2.1,1.2-3.5,1.1c-2-0.2-3.7-1.6-5-4.3C106.2,105.9,105.8,102.9,106.1,99.6"/>
		<path class="st1" d="M109.3,95.8c-0.6,0.9-1,2-1.1,3.4c-0.3,2.5,0.1,4.8,1.2,7c1,2.2,2.3,3.4,3.9,3.5c0.8,0.1,1.6-0.4,2.2-1.5
			c0.6-1,0.9-2.2,1.1-3.6c0.3-2.5-0.2-4.7-1.2-6.7c-1.1-2-2.5-3.1-4.2-3.2C110.5,94.7,109.9,95,109.3,95.8 M107.4,99.1
			c0.2-1.6,0.6-3,1.4-3.9c0.7-0.9,1.5-1.3,2.3-1.2c2,0.2,3.7,1.5,4.9,3.7c1.1,2.1,1.5,4.5,1.3,7.1c-0.2,1.6-0.6,3-1.3,4.1
			c-0.8,1.2-1.7,1.8-2.8,1.7c-1.8-0.2-3.2-1.4-4.4-3.8C107.6,104.4,107.1,101.9,107.4,99.1"/>
		<path class="st1" d="M90.6,100c-1.8-2.2-4.1-3.5-6.9-3.8c-2.9-0.3-5.4,0.4-7.5,2.1c-2.1,1.7-3.3,4-3.6,7c-0.3,3,0.4,5.6,2.1,7.9
			c1.7,2.3,3.9,3.6,6.6,3.9c2.7,0.3,5.2-0.5,7.5-2.2c2.5-1.9,3.9-4.3,4.2-7.4C93.2,104.7,92.4,102.2,90.6,100 M75.6,97.8
			c2.3-1.9,5.1-2.6,8.2-2.3c3,0.3,5.5,1.7,7.4,4c1.9,2.4,2.7,5.1,2.4,8.1c-0.3,3.3-1.8,5.9-4.5,7.9c-2.5,1.9-5.1,2.7-8,2.4
			c-2.9-0.3-5.3-1.7-7.2-4.2c-1.9-2.5-2.7-5.3-2.3-8.5C71.9,102.1,73.2,99.7,75.6,97.8"/>
		<path class="st1" d="M91.2,106.2c0.2-2.2-0.4-4.1-1.8-5.8c-1.4-1.7-3.3-2.7-5.6-2.9c-2-0.2-3.8,0.4-5.4,1.7
			c-1.8,1.5-2.8,3.5-3,6.1c-0.2,2.1,0.4,4,1.8,5.7c1.4,1.7,3.2,2.7,5.3,2.9c2.1,0.2,4.1-0.4,5.8-1.9C90,110.4,91,108.5,91.2,106.2
			 M74.6,105.3c0.3-2.8,1.4-5,3.4-6.6c1.8-1.5,3.8-2.1,6-1.9c2.5,0.3,4.5,1.3,6.1,3.2c1.6,1.9,2.2,4,2,6.4c-0.3,2.5-1.3,4.6-3.2,6.2
			c-1.9,1.6-4,2.3-6.4,2.1c-2.3-0.2-4.2-1.3-5.8-3.2C75,109.6,74.4,107.5,74.6,105.3"/>
		<path class="st1" d="M104.5,110.6l0.7-0.2c0.2,0,0.3,0,0.4,0c0.5,0.3,0.7,1.2,0.8,2.9c0,1.6-0.1,3.3-0.4,5.2
			c-0.9,4.9-2.2,7.2-3.9,7c-1.7-0.2-3.1-2.3-4.1-6.5c-0.4-1.6-0.6-3.1-0.7-4.5c-0.1-1.4,0-2.2,0.2-2.4c0.1-0.1,0.2-0.1,0.4-0.2
			l0.8-0.1l3-0.5C102.9,111.1,103.8,110.9,104.5,110.6 M105.4,113.5c0-1.2-0.1-2-0.3-2.3c-0.1,0.1-0.2,0.1-0.4,0.2
			c-1.2,0.5-2.3,0.8-3.3,1l-2.9,0.3l-0.7,0.1l0,0.3c-0.1,0.9,0,2.4,0.4,4.3c0.4,2.3,1,4.1,1.7,5.5c0.7,1.2,1.4,1.9,2.1,2
			c0.6,0.1,1.2-0.4,1.7-1.3c0.7-1.3,1.2-3.3,1.5-5.9C105.4,116.1,105.4,114.8,105.4,113.5"/>
		<path class="st1" d="M97.5,113c1.9-0.4,3.7,0.2,5.5,1.9c2,1.8,2.7,3.9,2.2,6.2c0,0.1-0.1,0.2-0.3,0.1s-0.2-0.1-0.2-0.2
			c0.4-1.6-0.3-3.4-1.9-5.3c-1.7-2-3.5-2.7-5.3-2.3c-0.1,0-0.2-0.1-0.2-0.3C97.3,113.1,97.4,113,97.5,113"/>
		<path class="st1" d="M85.2,120.9c-0.3-0.3-0.4-0.4-0.3-0.5c0.1-0.1,0.3-0.1,0.6,0.2c0.6,0.4,1.4,0.9,2.4,1.3l2.4,1.1
			c1.3,0.6,2.2,1,2.6,1.3c0.7,0.5,1,0.9,1.1,1.4c0,0.8-0.5,1.5-1.6,2.1c-1,0.6-2.2,1.1-3.7,1.4c-3.6,0.8-6.2,0.5-7.8-0.9
			c-0.4-0.3-0.5-0.5-0.4-0.7c0.1-0.1,0.3,0,0.7,0.3c0.9,0.8,2.5,1.1,4.6,0.9c2.1-0.1,3.9-0.6,5.4-1.3c1.3-0.6,2-1.3,2-1.9
			c0-0.3-0.4-0.6-1-1l-2.2-1l-2.4-1.1C86.7,122,85.9,121.5,85.2,120.9"/>
		<path class="st1" d="M121,104.5c2.6-0.4,4.1-0.4,4.6,0.1c0.6,0.6,0.4,1.9-0.6,4c-1.1,2.3-2.8,4.6-5.2,6.9c-0.1,0.1,0-0.2,0.1-0.8
			c0.1-0.6,0.2-0.9,0.3-1c1.9-1.9,3.3-3.9,4.2-5.8c0.6-1.4,0.9-2.3,0.6-2.7l-1.5-0.1c-0.8,0.1-1.6,0.3-2.5,0.6
			c-0.1,0-0.2-0.2-0.2-0.5C120.9,104.7,120.9,104.5,121,104.5"/>
		<path class="st1" d="M89.2,102.2c-0.1,0.9-0.5,1.7-1.2,2.2c-0.7,0.6-1.5,0.8-2.4,0.7s-1.6-0.5-2.2-1.2c-0.6-0.7-0.8-1.5-0.7-2.4
			c0.1-0.9,0.5-1.7,1.2-2.2c0.7-0.6,1.5-0.8,2.4-0.7c0.9,0.1,1.7,0.5,2.2,1.2C89,100.5,89.3,101.3,89.2,102.2"/>
		<path class="st1" d="M114.8,97.3c0.3,0.7,0.4,1.3,0.2,1.9c-0.1,0.6-0.4,1-0.9,1.2c-0.5,0.2-1,0.1-1.5-0.2
			c-0.5-0.3-0.9-0.8-1.2-1.5c-0.3-0.6-0.4-1.3-0.2-1.9c0.1-0.6,0.4-1,0.9-1.2c0.5-0.2,1-0.1,1.5,0.2
			C114.1,96.2,114.5,96.7,114.8,97.3"/>
		<path class="st1" d="M96,101c-1.5-0.2-2.8-0.9-4-2.1c-1.2-1.3-1.8-2.8-1.6-4.4c0.1-0.6,0.2-1.2,0.6-2c0.3-0.8,0.7-1.3,1-1.6
			l-2.5-0.9c-1.2-0.4-1.9-0.8-2.3-1.1l-2.5-2.5c-1.2-1.3-1.9-2.3-2-2.8c-0.2-1-0.2-2.2-0.1-3.6c0.2-2.1,1.5-4,4-5.8
			c2.6-1.9,5.4-2.7,8.4-2.4c4.2,0.4,7.6,2.5,10.3,6.1c2.6,3.4,3.7,7,3.3,10.7c-0.4,4.2-1.8,7.4-3.9,9.6
			C102.5,100.5,99.6,101.4,96,101"/>
		<path class="st1" d="M62,77.2c0.9-0.8,4-0.5,9.3,0.9c5,1.3,8.5,2.6,10.5,3.8c0.7,0.4-1.1,3.6-5.3,9.5c-3.8,5.4-6.4,8.7-7.7,10.1
			c-0.8,0.8-2,0.9-3.5,0.1c-1.5-0.8-2.6-2-3.2-3.6c-0.9-2.4-1.5-6.3-1.5-11.5C60.4,81.2,60.9,78.1,62,77.2"/>
		<path class="st1" d="M65.3,81c1.8,0,3.7,0.2,5.6,0.5c2,0.3,4.2,0.9,6.8,1.9c-1.1,1.6-2.4,3.4-4,5.4c-1,1.2-2.1,3.1-3.3,5.6
			c-0.6,1.2-1.1,2.4-1.5,3.4c-0.4-0.7-0.8-1.6-1.3-2.7c-1-2.2-1.6-4.1-2-5.8s-0.6-3.6-0.5-5.6L65.3,81"/>
		<path class="st1" d="M104.4,98.5c-2,2-4.7,2.9-8,2.5c-2.6-0.3-4.4-1.6-5.4-3.9c-0.2-0.5-0.3-1.2-0.3-2.2l0.1-1.1
			c0,0.8,0.6,1.7,1.8,2.9c1.4,1.4,2.9,2.1,4.4,2.3c2.9,0.3,5.5-0.7,7.8-3.1c2-2,3.2-4.2,3.6-6.7C107.8,93.4,106.5,96.5,104.4,98.5"
			/>
		<path class="st1" d="M61.5,77.9c-0.4,3.4-0.3,7.1,0.3,11.1c0.6,4.3,1.7,7.6,3.1,9.9c1.1,1.6,1.1,2.3,0.1,2.1
			c-1-0.3-1.8-0.9-2.3-1.7c-0.6-1-1.1-2.2-1.6-3.8c-0.6-2.1-0.9-4.5-0.9-7c0-2.4,0.2-4.8,0.6-7.4L61.5,77.9"/>
		<path class="st1" d="M81,81.1c0.6,0.4,0.8,0.7,0.7,0.9c-0.1,0.2-0.6,0-1.3-0.4c-1.4-0.8-4.5-1.8-9.4-2.9c-5.1-1.2-8-1.5-8.6-0.9
			c-1.2,1-1.7,4.2-1.6,9.5c0.1,5.3,0.7,9,1.8,11c0.6,1.1,0.9,1.7,0.7,1.8c-0.1,0.1-0.5-0.3-1.3-1.3c-1.4-1.7-2.2-5.4-2.4-11.2
			c-0.2-5.9,0.5-9.4,2-10.7c0.9-0.8,3.9-0.6,9.1,0.5C75.7,78.5,79.2,79.7,81,81.1"/>
		<path class="st1" d="M71.6,82.1c-2.6-0.5-4.7-0.8-6.2-0.8c-0.2,0.9-0.2,2.1-0.1,3.7c0.1,1.8,0.4,3.6,0.8,5.2
			c0.4,1.6,1.3,3.8,2.6,6.7c0.9-2.3,2.4-4.9,4.5-8c1.3-1.9,2.6-3.7,3.9-5.3C75.8,83,73.9,82.6,71.6,82.1 M78.3,82.8
			c0.2,0.1,0.3,0.2,0.3,0.2c0,0.1,0,0.2-0.2,0.4c-1.1,1.4-2.4,2.9-3.7,4.8c-2.6,3.6-4.4,6.7-5.4,9.1c-0.2,0.6-0.5,0.9-0.6,0.9
			c-0.2,0-0.4-0.3-0.6-0.9c-1.4-3-2.3-5.3-2.7-7c-0.5-1.8-0.8-3.9-0.8-6c0-2.2,0.2-3.5,0.7-4c0.3-0.3,0.6-0.5,0.7-0.4
			c0.1,0.1,0.1,0.2-0.2,0.6c1.8,0,4.1,0.3,6.9,0.9C75.4,81.9,77.3,82.4,78.3,82.8"/>
		<path class="st1" d="M108.8,89.4c-0.4,4.3-1.8,7.4-4.1,9.5c-2.2,2-5.1,2.8-8.7,2.5c-2.9-0.3-4.8-1.8-5.7-4.4
			c-0.4-1.1-0.5-2.2-0.2-3.3c0.2-1.1,0.7-2.1,1.5-2.8c0.6,0.2,0.8,0.3,0.7,0.5c-0.6,0.5-1.1,1.3-1.2,2.3c-0.2,1-0.1,2,0.2,3
			c0.8,2.4,2.4,3.8,4.9,4c3.6,0.4,6.4-0.7,8.5-3.1c1.8-2,2.9-4.8,3.2-8.2c0.4-4.2-0.6-8-3.2-11.3s-5.9-5.2-10-5.6
			c-2.9-0.3-5.6,0.5-8.1,2.5c-2.7,2.1-4,4.6-3.7,7.6c0.1,0.7,0,1.1-0.2,1.1c-0.2,0-0.3-0.3-0.4-1.1c-0.2-3.3,0.9-6.1,3.5-8.3
			c2.6-2.2,5.6-3.2,9-2.8c4.3,0.4,7.8,2.5,10.6,6C108.1,80.9,109.3,84.9,108.8,89.4"/>
		<path class="st1" d="M93.7,91.2c1.1,0.6,1.7,1.3,1.8,2c0.1,0.6,0,0.9-0.2,1c-0.3,0-0.4-0.3-0.5-0.9c-0.1-0.5-0.6-1.1-1.6-1.6
			c-0.6-0.3-1.6-0.7-2.9-1.1l-1.8-0.7c-0.6-0.3-1-0.6-1.3-0.9c-0.2-0.3-0.3-0.4-0.2-0.5c0.1-0.1,0.2,0,0.5,0.2
			c0.3,0.3,0.8,0.5,1.4,0.7l1.7,0.5C91.9,90.4,93,90.9,93.7,91.2"/>
		<path class="st0" d="M169,143l-13-0.2l1.4-84.4l-5.1-0.1l0.2-10.8l16.8,0.3l-1,59.2l0.2,0l9.9-20.2l10.6,0.5l-9.3,18.3l9.5,25.4
			l4.8,0.1l-0.2,10.8l-12.7-0.2l-12.6-34.1l-0.2,0l-0.6,35.4 M151,141.2"/>
		<path class="st0" d="M258.4,129.5l10.1,3.4c-1.7,4.1-4,7.2-7.1,9.3s-6.6,3-10.4,2.8c-6.2-0.4-10.6-2.6-13.3-6.8
			c-2.7-4.2-3.7-10.6-3.2-19.3c0.5-8.7,2.3-15.2,5.5-19.3c3.1-4.1,7.8-6,13.9-5.6c5,0.3,9.1,2.3,12.1,6c3,3.7,4.3,8.9,3.9,15.5
			l-0.4,7.4l-22.8-1.3l-0.1,2.1c-0.3,4.4,0,7.6,0.8,9.8c0.8,2.2,2.3,3.3,4.4,3.5C255.3,137.2,257.5,134.7,258.4,129.5z M247,114.6
			l11.1,0.6l0.2-4.3c0.4-6.1-1.3-9.2-5.1-9.4c-2.1-0.1-3.6,0.7-4.5,2.4c-0.9,1.7-1.4,4.6-1.7,8.5L247,114.6z"/>
		<path class="st0" d="M301.5,110.6l4.4,24.7l5,0.8l-1.8,10.7l-12.9-2.2l-2.8-20.9l-0.2,0l-9.8,18.8l-11.1-1.9l17.7-30.4l-4.1-22.6
			l-4.5-0.8l1.8-10.7l12.6,2.1l2.5,18.5l0.2,0l8.4-16.7l11.4,1.9L301.5,110.6z"/>
	</g>
	<g>
		<g>
			<path class="st2" d="M23.8,141.7l-2.7-84.3l-7.1,0.2l-0.3-11.3l20.9-0.5c7.7-0.2,13.9,1.8,18.4,6c4.5,4.2,6.9,10.1,7.1,17.5
				c0.1,5.5-1,10.1-3.4,13.7c-2.4,3.6-5.9,5.7-10.3,6.3l0,0.2c5.2,0.9,9.2,3.4,12.2,7.5c3,4.1,4.6,9.2,4.7,15.3
				c0.2,8.2-2,14.7-6.6,19.5c-4.6,4.8-11.3,7.3-20,7.5l-12.9,1 M34.3,57.1L35,84.8c2.7-0.1,4.8-0.4,6.4-1c1.6-0.5,2.9-1.8,3.9-3.8
				c1-2,1.5-5,1.4-9.2c-0.1-5.1-1-8.7-2.6-10.8C42.5,58,39.2,57,34.3,57.1z M35.2,96.1l0.7,32c4.9-0.1,8.4-1.4,10.5-4
				c2.1-2.5,3.1-6.6,3-12c-0.1-4.9-0.9-8.5-2.3-10.8c-1.4-2.4-3.1-3.8-4.9-4.4C40.4,96.3,38.1,96.1,35.2,96.1z"/>
			<path class="st2" d="M223.8,139.1l-11.8-0.6l0.3-5.6l-0.3,0c-1.3,2-2.8,3.5-4.3,4.5c-1.5,1-3.4,1.4-5.8,1.3
				c-4.8-0.2-8.3-2.8-10.6-7.6s-3.3-11.7-2.9-20.5c0.5-10.8,2-18.4,4.4-22.9c2.4-4.5,6.3-6.6,11.5-6.3c3.9,0.2,7.1,2,9.8,5.4l0.3,0
				l1.5-30.6l-7.5-0.4l0.5-11.3l19.2,0.9l-4,84.5L223.8,139.1z M213.2,113.4l0.3-7.4c0.2-3.8-0.2-6.6-1.1-8.3
				c-0.9-1.8-2.5-2.7-4.8-2.8c-2.5-0.1-4.1,0.8-5,2.8c-0.9,2-1.5,5.6-1.7,10.9l-0.5,10.6c-0.3,5.8,1.6,8.8,5.7,9
				c2.6,0.1,4.4-0.7,5.3-2.6C212.3,123.6,212.9,119.6,213.2,113.4z"/>
			<path class="st2" d="M123.1,134.6c-5.6-2.3-8.8-6-9.8-11c-0.9-5,0.3-11.6,3.7-19.7c3.5-8.3,7.3-13.8,11.6-16.5
				c4.2-2.7,9.1-2.9,14.6-0.6c10.9,4.6,13,14.9,6.2,30.8C142.7,133.5,134,139.2,123.1,134.6z M138.8,93.9c-2-0.7-3.7,0-5.1,2
				c-1.4,2-3.3,6.3-5.5,13.1c-1.7,4.9-2.7,8.6-3.2,11.1c-0.5,2.5-0.5,4.3-0.1,5.3c0.4,1,1.3,1.8,2.6,2.2c2.3,0.8,4.1-0.1,5.5-2.4
				c1.4-2.4,3.2-6.6,5.2-12.7c2.3-6.7,3.4-11.3,3.5-13.8C141.8,96.1,140.8,94.6,138.8,93.9z"/>
			<g>
				<path class="st3" d="M79.8,129.2c1.1,0.2,2.5,1,4.2,2.5c1.8,1.5,2.4,2.3,1.9,2.6c-1.1,0.6-3.7,1-7.9,1c-4.3,0-7.3-0.3-8.9-1.1
					c-0.4-0.2-0.6-0.6-0.4-1.2c0.2-0.6,0.5-1.2,1.1-1.6c0.9-0.7,2.5-1.3,5-1.7C77.2,129.2,78.8,129,79.8,129.2"/>
				<path class="st4" d="M75,129.6c0.9-0.6,2.7-1,5.3-1l5.3,0.7c1.3,0.6,2.1,1.3,2.4,2.2c0.4,1.1-0.3,2.1-2.1,2.9l-1.7,0.4l-2.5,0.3
					c0.2-0.4-0.4-1.4-1.8-2.8C78.5,130.7,76.8,129.8,75,129.6"/>
				<path class="st5" d="M85.2,129.4c0.2-0.2,0.4-0.1,0.9,0.1c1.6,0.9,2.4,1.9,2.4,2.9c0,1-0.6,1.7-2,2.2c-3.5,1.1-7.2,1.6-11.3,1.3
					c-3.8-0.2-6.2-0.9-7-2c-0.5-0.9,0-1.8,1.5-2.9c1.7-1.1,3.9-1.8,6.8-2.2l1.6-0.1l1.6,0.1l0.9,0.2c0.4,0.1,0.4,0.2,0.3,0.2
					c-4,0.1-7.1,0.6-9.4,1.7c-2,0.9-2.7,1.6-2.3,2.3c0.8,1.1,3.4,1.6,7.7,1.7c4.2,0.1,7.3-0.3,9.5-1.1c1-0.4,1.5-0.9,1.5-1.7
					c-0.1-0.8-0.8-1.5-2.3-2.2C85.2,129.8,85,129.6,85.2,129.4"/>
				<path class="st3" d="M94.8,128.8l5,0.8l4.8,1c0.1,0,0.8,0.3,2,1.1c1.2,0.8,1.8,1.3,2.1,1.5c1.1,1.2,1.7,2.4,1.8,3.5
					c0.1,0.8-0.1,1.3-0.4,1.3c-3,0.2-6.3-0.7-9.8-2.7c-1.8-1-3.6-2.3-5.4-3.9c-0.5-0.4-0.7-1-0.5-1.6L94.8,128.8l-0.4,0l0.4-0.3
					L94.8,128.8"/>
				<path class="st4" d="M95.2,128.9c2.1-0.5,3.9-0.5,5.2-0.2c0.7,0.2,2.1,0.7,4.1,1.7c0.5,0.2,1.1,0.7,1.9,1.3s1,0.9,0.6,0.7
					l-1.5-0.5c-0.8-0.2-1.6-0.1-2.5,0.2c-1.7,0.6-2.7,1.6-3,2.9c-0.7-0.1-1.6-0.5-2.6-1.1c-1.6-1-2.5-2.2-2.9-3.7
					c-0.1-0.3,0-0.5,0.1-0.8C94.9,129.1,95,128.9,95.2,128.9"/>
				<path class="st5" d="M96.6,127.9c3.6,0.1,7.1,1.4,10.6,3.7c1.3,0.9,2.3,1.8,3.1,3c0.8,1.2,1.1,2.2,0.9,3.1
					c-0.1,0.3-0.3,0.5-0.6,0.7c-0.3,0.2-0.6,0.3-0.9,0.3c-0.7,0.1-1.7,0-2.8-0.3c-2.3-0.5-4.6-1.5-7.1-2.8l-2.4-1.4
					c-0.9-0.6-1.6-1.2-2.1-1.8c-0.4-0.5-0.7-1-0.9-1.6c-0.2-0.7-0.2-1.3,0.1-1.7c0.1-0.1,0.2-0.1,0.3-0.1l0,0L95,129l-0.1,0.6
					c0,0.7,0.1,1.3,0.5,1.7c0.5,0.7,1.3,1.3,2.2,2c0.6,0.4,1.4,0.9,2.6,1.5c2.1,1.1,4.3,1.9,6.4,2.4l2.4,0.4l0.9,0l0.4-0.2
					c0.1-0.6-0.2-1.4-1-2.5c-0.8-1.2-1.8-2.1-2.9-2.9c-1.5-1-2.8-1.7-4-2.2c-1.1-0.4-2.8-0.8-5.2-1.2c-0.2,0-0.4-0.2-0.7-0.4
					C96.3,128,96.3,127.9,96.6,127.9"/>
				<path class="st3" d="M110.2,83.2c6.2,6,8.8,13.4,7.9,22.1c-0.9,8.8-4.7,15.5-11.4,20.3c-6.3,4.5-13.7,6.3-22.3,5.4
					c-8.7-0.9-15.6-4.4-20.5-10.6c-4.7-5.9-6.7-12.8-5.9-20.7c0.9-8.4,4.3-15.1,10.2-19.9C74.1,75,81,73,88.9,73.8
					C97.5,74.7,104.6,77.9,110.2,83.2"/>
				<path class="st3" d="M111.3,72.3c0.7,5.3,0.7,9.2,0,11.8c-0.6-0.7-1.6-1.5-2.8-2.6c-1.5-1.2-2.6-2-3.3-2.3
					c-0.4-1.1-0.9-2.3-1.5-3.5c-0.7-1.3-1.5-2.4-2.2-3.1c-0.5-0.5-1.2-1.1-2.2-1.8c-1.1-0.9-2.2-1.5-3-2c2.7-1.7,5.1-2.9,7.1-3.8
					c2.5-1.1,4.2-1.4,5.1-1.1C109.6,64.2,110.5,67,111.3,72.3"/>
				<path class="st3" d="M118.3,101.1l2-0.4c1.3-0.2,2-0.1,2.1,0.2c0.2,0.6-0.1,1.8-0.9,3.6c-1,2.2-2.3,4-4,5.4l0.7-4.8l0.2-2.7
					L118.3,101.1"/>
				<path class="st6" d="M80.2,91.9c3.4,0.4,6.1,1.8,8,4.3c1.6,2.2,2.4,4.4,2.1,6.6c-0.4,3.5-1.8,6.2-4.4,8.3
					c-2.4,2-5.1,2.8-8.1,2.5c-2.7-0.3-5-1.7-6.7-4.3c-1.7-2.5-2.4-5.1-2.1-8c0.3-2.7,1.5-5.1,3.6-7C74.9,92.4,77.4,91.6,80.2,91.9"
					/>
				<path class="st6" d="M105.2,91c0.9-1.2,1.9-1.7,2.8-1.6c2,0.2,3.7,1.5,5.2,4c1.4,2.4,1.9,4.8,1.7,7.2c-0.3,2.7-0.7,4.6-1.3,5.8
					c-0.9,1.7-2.2,2.4-3.9,2.2c-2-0.2-3.7-1.7-4.9-4.6c-1.2-2.7-1.6-5.4-1.3-8.3C103.6,93.8,104.2,92.2,105.2,91"/>
				<path class="st7" d="M80.8,93.1c2.2,0.2,4.1,1.2,5.6,2.9c1.6,1.8,2.3,3.8,2.1,6.1c-0.3,2.7-1.4,4.8-3.4,6.3
					c-1.8,1.3-3.9,1.9-6.3,1.6c-2-0.2-3.7-1.2-5.1-3.1c-1.4-1.8-2-3.7-1.8-5.7c0.3-2.5,1.2-4.5,2.9-6.1
					C76.6,93.6,78.6,92.9,80.8,93.1"/>
				<path class="st7" d="M106.1,91.6c0.7-0.9,1.3-1.3,2-1.2c1.7,0.2,3.2,1.2,4.4,3.2c1.2,2,1.7,4.2,1.5,6.7
					c-0.2,1.8-0.6,3.3-1.3,4.4c-0.7,1.1-1.5,1.6-2.5,1.5c-1.6-0.2-3-1.4-4.1-3.8c-1.1-2.3-1.5-4.6-1.3-7
					C104.9,93.8,105.3,92.6,106.1,91.6"/>
				<path class="st5" d="M108.5,81.6c-1.5-1.1-2.6-1.9-3.4-2.4c-0.5-1.5-1-2.6-1.4-3.4c-0.3-0.5-0.7-1.2-1.4-2.1l-0.9-1.1l1-1.3
					c0.7-1,1.4-1.7,2-2.1c0.9-0.7,1.9-1.4,2.8-1.9l0.8,2.1c0.6,1.7,0.9,3.4,1,5c0.1,1.6,0.1,3.3-0.1,5.1L108.5,81.6"/>
				<path class="st8" d="M99.8,111.2c-1.4-1.2-2.7-1.8-3.6-2l-1.2,0l-0.4,0.1l0-0.5c0-0.3,0.1-0.5,0.2-0.5l1.5-0.1
					c1-0.1,1.9-0.2,2.6-0.4l2.4-0.7c0.7-0.2,1.1-0.3,1.1-0.2l0.4,1.4c0.2,1,0.2,1.8,0.2,2.5l-0.7,4.7l-0.8-1.7
					C100.9,112.5,100.3,111.7,99.8,111.2"/>
				<path class="st9" d="M99.7,111.1c0.8,0.9,1.5,2,2,3.3c0.3,0.6,0.4,1.2,0.5,1.6l-0.9,2.7c-0.8,1.8-1.6,2.6-2.4,2.5
					c-0.9-0.1-1.7-0.9-2.4-2.3c-0.6-1.1-1-2.5-1.4-4.2c-0.3-1.2-0.4-2.4-0.5-3.8l-0.1-1.7l1.9,0.1C97.8,109.5,98.9,110.1,99.7,111.1
					"/>
				<path class="st4" d="M58.6,108.7c-0.6-2.8-0.8-5.4-0.6-7.8c-0.1,2,0.3,4.4,1.3,7.1c1.1,3,2.8,5.9,5,8.6
					c5.5,6.7,12.6,10.5,21.2,11.4c8.9,0.9,16.6-1.2,23.1-6.4c2.5-2,4.6-4.2,6.2-6.8c1.5-2.2,2.4-4.2,2.7-5.9c-0.3,2.4-1.1,5-2.7,7.7
					c-1.7,2.9-3.8,5.4-6.5,7.7c-6.6,5.5-14.7,7.7-24.2,6.7c-9.8-1-17.1-5.3-21.8-12.8C60.6,115.3,59.4,112.1,58.6,108.7"/>
				<path class="st4" d="M122.4,101l-0.2,1.4c-0.3,1.2-0.8,2.4-1.4,3.7c-0.7,1.3-1.5,2.2-2.3,2.9l-1.1,0.7l1.1-4.6
					C120.2,104.1,121.5,102.7,122.4,101"/>
				<path class="st3" d="M77.4,122.8c0.3-0.4,0.8-0.5,1.6-0.2c1.4,0.6,3.1,0.8,5.3,0.7c2.3-0.1,4.4-0.7,6.4-1.5l-0.3,0.7
					c-0.4,0.6-1,1.1-2,1.6c-0.8,0.4-2.2,0.7-4.3,1.1c-1.1,0.2-2.1,0.2-2.9,0.1c-1.1-0.2-2.2-0.6-3.2-1.2
					C77.3,123.6,77.1,123.2,77.4,122.8"/>
				<path class="st5" d="M117.5,105.3c0.9-8.2-1.4-15.2-6.8-21c-5.4-5.8-12.7-9.2-22.1-10.1c-3.6-0.4-7.2-0.1-10.6,1
					c-3.4,1-6.5,2.7-9.3,5c-2.8,2.4-5.1,5.2-6.8,8.5c-1.7,3.3-2.8,6.9-3.2,10.9c-0.4,3.7-0.1,7.3,0.9,10.8c1,3.5,2.6,6.7,4.9,9.6
					c2.4,3,5.3,5.4,8.7,7.2c3.4,1.8,7.1,3,11.2,3.4c4.2,0.4,8.1,0.2,11.9-0.7c3.8-0.9,7.2-2.4,10.1-4.5c3.2-2.3,5.7-5.1,7.5-8.5
					C115.9,113.4,117.1,109.6,117.5,105.3 M111.4,83.9c5.5,6,7.8,13.1,7,21.6c-0.9,8.6-4.5,15.3-10.9,20.1
					c-6.3,4.8-14.1,6.8-23.2,5.8c-8.8-0.9-15.7-4.5-20.6-10.7c-4.8-6-6.8-13.1-5.9-21.2c0.9-8.8,4.5-15.6,10.7-20.5
					c5.8-4.5,12.6-6.4,20.3-5.6C98.3,74.4,105.9,77.9,111.4,83.9"/>
				<path class="st5" d="M111.8,73.2c0.6,5.5,0.6,9.2-0.3,11.1l-0.2,0.2l-0.3,0c-0.2-0.1-0.3-0.3-0.2-0.5c0.8-1.9,0.8-5.4,0.2-10.7
					c-0.7-5.4-1.6-8.4-2.8-9.1c-0.6-0.3-2,0-4.4,0.9c-2.6,1-5.2,2.4-7.8,4.2l-0.3,0.1l-0.2-0.2l-0.1-0.3l0.2-0.2
					c2.6-1.8,5.2-3.2,7.9-4.2c2.6-1,4.4-1.3,5.2-0.9C110.1,64.3,111.1,67.6,111.8,73.2"/>
				<path class="st5" d="M107.8,66.7l0.6,0.1c0,0.1-0.2,0.3-0.7,0.4c-0.6,0.2-1.5,0.8-2.7,1.8c-1.4,1.2-2.6,2.5-3.6,4
					c-0.1,0.1-0.2,0-0.4-0.2c-0.2-0.2-0.3-0.4-0.2-0.4c1.1-1.6,2.4-2.9,3.9-4.1C106.1,67.3,107.1,66.8,107.8,66.7"/>
				<path class="st5" d="M109.3,74.4c0.3,2.9,0.3,5.3-0.2,7.3l-0.5,0c-0.3-0.3-0.4-0.5-0.3-0.6c0.5-1.8,0.6-4.1,0.2-6.8
					c-0.3-2.4-0.8-4.7-1.6-6.9c0.3-0.2,0.5-0.2,0.5-0.2C108.3,69.2,108.9,71.7,109.3,74.4"/>
				<path class="st5" d="M103.9,95.7c-0.3,3.2,0.1,6.1,1.4,8.7c1.2,2.4,2.6,3.7,4.3,3.9c2.7,0.3,4.3-2,4.8-6.9
					c0.3-2.8-0.2-5.4-1.4-7.8c-1.3-2.4-2.9-3.7-4.7-3.9c-0.9-0.1-1.7,0.3-2.5,1.3C104.7,92.1,104.1,93.7,103.9,95.7 M103.1,95.6
					c0.2-2.1,0.9-3.8,2-5c1-1.1,2.1-1.6,3.2-1.5c2.1,0.2,3.9,1.6,5.3,4.1c1.4,2.5,2,5.3,1.7,8.3c-0.3,3-1.1,5.1-2.4,6.3
					c-0.9,0.9-2.1,1.2-3.5,1.1c-2-0.2-3.7-1.6-5-4.3C103.2,101.9,102.8,98.9,103.1,95.6"/>
				<path class="st5" d="M106.3,91.8c-0.6,0.9-1,2-1.1,3.4c-0.3,2.5,0.1,4.8,1.2,7c1,2.2,2.3,3.4,3.9,3.5c0.8,0.1,1.6-0.4,2.2-1.5
					c0.6-1,0.9-2.2,1.1-3.6c0.3-2.5-0.2-4.7-1.2-6.7c-1.1-2-2.5-3.1-4.2-3.2C107.5,90.7,106.9,91,106.3,91.8 M104.4,95.1
					c0.2-1.6,0.6-3,1.4-3.9c0.7-0.9,1.5-1.3,2.3-1.2c2,0.2,3.7,1.5,4.9,3.7c1.1,2.1,1.5,4.5,1.3,7.1c-0.2,1.6-0.6,3-1.3,4.1
					c-0.8,1.2-1.7,1.8-2.8,1.7c-1.8-0.2-3.2-1.4-4.4-3.8C104.6,100.4,104.1,97.9,104.4,95.1"/>
				<path class="st5" d="M87.6,96c-1.8-2.2-4.1-3.5-6.9-3.8c-2.9-0.3-5.4,0.4-7.5,2.1c-2.1,1.7-3.3,4-3.6,7c-0.3,3,0.4,5.6,2.1,7.9
					c1.7,2.3,3.9,3.6,6.6,3.9c2.7,0.3,5.2-0.5,7.5-2.2c2.5-1.9,3.9-4.3,4.2-7.4C90.2,100.7,89.4,98.2,87.6,96 M72.6,93.8
					c2.3-1.9,5.1-2.6,8.2-2.3c3,0.3,5.5,1.7,7.4,4c1.9,2.4,2.7,5.1,2.4,8.1c-0.3,3.3-1.8,5.9-4.5,7.9c-2.5,1.9-5.1,2.7-8,2.4
					c-2.9-0.3-5.3-1.7-7.2-4.2c-1.9-2.5-2.7-5.3-2.3-8.5C68.9,98.1,70.2,95.7,72.6,93.8"/>
				<path class="st5" d="M88.2,102.2c0.2-2.2-0.4-4.1-1.8-5.8c-1.4-1.7-3.3-2.7-5.6-2.9c-2-0.2-3.8,0.4-5.4,1.7
					c-1.8,1.5-2.8,3.5-3,6.1c-0.2,2.1,0.4,4,1.8,5.7c1.4,1.7,3.2,2.7,5.3,2.9c2.1,0.2,4.1-0.4,5.8-1.9C87,106.4,88,104.5,88.2,102.2
					 M71.6,101.3c0.3-2.8,1.4-5,3.4-6.6c1.8-1.5,3.8-2.1,6-1.9c2.5,0.3,4.5,1.3,6.1,3.2c1.6,1.9,2.2,4,2,6.4
					c-0.3,2.5-1.3,4.6-3.2,6.2c-1.9,1.6-4,2.3-6.4,2.1c-2.3-0.2-4.2-1.3-5.8-3.2C72,105.6,71.4,103.5,71.6,101.3"/>
				<path class="st5" d="M101.5,106.6l0.7-0.2c0.2,0,0.3,0,0.4,0c0.5,0.3,0.7,1.2,0.8,2.9c0,1.6-0.1,3.3-0.4,5.2
					c-0.9,4.9-2.2,7.2-3.9,7c-1.7-0.2-3.1-2.3-4.1-6.5c-0.4-1.6-0.6-3.1-0.7-4.5c-0.1-1.4,0-2.2,0.2-2.4c0.1-0.1,0.2-0.1,0.4-0.2
					l0.8-0.1l3-0.5C99.9,107.1,100.8,106.9,101.5,106.6 M102.4,109.5c0-1.2-0.1-2-0.3-2.3c-0.1,0.1-0.2,0.1-0.4,0.2
					c-1.2,0.5-2.3,0.8-3.3,1l-2.9,0.3l-0.7,0.1l0,0.3c-0.1,0.9,0,2.4,0.4,4.3c0.4,2.3,1,4.1,1.7,5.5c0.7,1.2,1.4,1.9,2.1,2
					c0.6,0.1,1.2-0.4,1.7-1.3c0.7-1.3,1.2-3.3,1.5-5.9C102.4,112.1,102.4,110.8,102.4,109.5"/>
				<path class="st5" d="M94.5,109c1.9-0.4,3.7,0.2,5.5,1.9c2,1.8,2.7,3.9,2.2,6.2c0,0.1-0.1,0.2-0.3,0.1s-0.2-0.1-0.2-0.2
					c0.4-1.6-0.3-3.4-1.9-5.3c-1.7-2-3.5-2.7-5.3-2.3c-0.1,0-0.2-0.1-0.2-0.3C94.3,109.1,94.4,109,94.5,109"/>
				<path class="st5" d="M82.2,116.9c-0.3-0.3-0.4-0.4-0.3-0.5c0.1-0.1,0.3-0.1,0.6,0.2c0.6,0.4,1.4,0.9,2.4,1.3l2.4,1.1
					c1.3,0.6,2.2,1,2.6,1.3c0.7,0.5,1,0.9,1.1,1.4c0,0.8-0.5,1.5-1.6,2.1c-1,0.6-2.2,1.1-3.7,1.4c-3.6,0.8-6.2,0.5-7.8-0.9
					c-0.4-0.3-0.5-0.5-0.4-0.7c0.1-0.1,0.3,0,0.7,0.3c0.9,0.8,2.5,1.1,4.6,0.9c2.1-0.1,3.9-0.6,5.4-1.3c1.3-0.6,2-1.3,2-1.9
					c0-0.3-0.4-0.6-1-1l-2.2-1l-2.4-1.1C83.7,118,82.9,117.5,82.2,116.9"/>
				<path class="st5" d="M118,100.5c2.6-0.4,4.1-0.4,4.6,0.1c0.6,0.6,0.4,1.9-0.6,4c-1.1,2.3-2.8,4.6-5.2,6.9
					c-0.1,0.1,0-0.2,0.1-0.8c0.1-0.6,0.2-0.9,0.3-1c1.9-1.9,3.3-3.9,4.2-5.8c0.6-1.4,0.9-2.3,0.6-2.7l-1.5-0.1
					c-0.8,0.1-1.6,0.3-2.5,0.6c-0.1,0-0.2-0.2-0.2-0.5C117.9,100.7,117.9,100.5,118,100.5"/>
				<path class="st6" d="M86.2,98.2c-0.1,0.9-0.5,1.7-1.2,2.2c-0.7,0.6-1.5,0.8-2.4,0.7s-1.6-0.5-2.2-1.2c-0.6-0.7-0.8-1.5-0.7-2.4
					c0.1-0.9,0.5-1.7,1.2-2.2c0.7-0.6,1.5-0.8,2.4-0.7c0.9,0.1,1.7,0.5,2.2,1.2C86,96.5,86.3,97.3,86.2,98.2"/>
				<path class="st6" d="M111.8,93.3c0.3,0.7,0.4,1.3,0.2,1.9c-0.1,0.6-0.4,1-0.9,1.2c-0.5,0.2-1,0.1-1.5-0.2
					c-0.5-0.3-0.9-0.8-1.2-1.5c-0.3-0.6-0.4-1.3-0.2-1.9c0.1-0.6,0.4-1,0.9-1.2c0.5-0.2,1-0.1,1.5,0.2
					C111.1,92.2,111.5,92.7,111.8,93.3"/>
				<path class="st3" d="M93,97c-1.5-0.2-2.8-0.9-4-2.1c-1.2-1.3-1.8-2.8-1.6-4.4c0.1-0.6,0.2-1.2,0.6-2c0.3-0.8,0.7-1.3,1-1.6
					l-2.5-0.9c-1.2-0.4-1.9-0.8-2.3-1.1l-2.5-2.5c-1.2-1.3-1.9-2.3-2-2.8c-0.2-1-0.2-2.2-0.1-3.6c0.2-2.1,1.5-4,4-5.8
					c2.6-1.9,5.4-2.7,8.4-2.4c4.2,0.4,7.6,2.5,10.3,6.1c2.6,3.4,3.7,7,3.3,10.7c-0.4,4.2-1.8,7.4-3.9,9.6C99.5,96.5,96.6,97.4,93,97
					"/>
				<path class="st3" d="M59,73.2c0.9-0.8,4-0.5,9.3,0.9c5,1.3,8.5,2.6,10.5,3.8c0.7,0.4-1.1,3.6-5.3,9.5c-3.8,5.4-6.4,8.7-7.7,10.1
					c-0.8,0.8-2,0.9-3.5,0.1c-1.5-0.8-2.6-2-3.2-3.6c-0.9-2.4-1.5-6.3-1.5-11.5C57.4,77.2,57.9,74.1,59,73.2"/>
				<path class="st5" d="M62.3,77c1.8,0,3.7,0.2,5.6,0.5c2,0.3,4.2,0.9,6.8,1.9c-1.1,1.6-2.4,3.4-4,5.4c-1,1.2-2.1,3.1-3.3,5.6
					c-0.6,1.2-1.1,2.4-1.5,3.4c-0.4-0.7-0.8-1.6-1.3-2.7c-1-2.2-1.6-4.1-2-5.8s-0.6-3.6-0.5-5.6L62.3,77"/>
				<path class="st4" d="M101.4,94.5c-2,2-4.7,2.9-8,2.5c-2.6-0.3-4.4-1.6-5.4-3.9c-0.2-0.5-0.3-1.2-0.3-2.2l0.1-1.1
					c0,0.8,0.6,1.7,1.8,2.9c1.4,1.4,2.9,2.1,4.4,2.3c2.9,0.3,5.5-0.7,7.8-3.1c2-2,3.2-4.2,3.6-6.7C104.8,89.4,103.5,92.5,101.4,94.5
					"/>
				<path class="st4" d="M58.5,73.9c-0.4,3.4-0.3,7.1,0.3,11.1c0.6,4.3,1.7,7.6,3.1,9.9c1.1,1.6,1.1,2.3,0.1,2.1s-1.8-0.9-2.3-1.7
					c-0.6-1-1.1-2.2-1.6-3.8c-0.6-2.1-0.9-4.5-0.9-7c0-2.4,0.2-4.8,0.6-7.4L58.5,73.9"/>
				<path class="st5" d="M78,77.1c0.6,0.4,0.8,0.7,0.7,0.9c-0.1,0.2-0.6,0-1.3-0.4c-1.4-0.8-4.5-1.8-9.4-2.9c-5.1-1.2-8-1.5-8.6-0.9
					c-1.2,1-1.7,4.2-1.6,9.5c0.1,5.3,0.7,9,1.8,11c0.6,1.1,0.9,1.7,0.7,1.8c-0.1,0.1-0.5-0.3-1.3-1.3c-1.4-1.7-2.2-5.4-2.4-11.2
					c-0.2-5.9,0.5-9.4,2-10.7c0.9-0.8,3.9-0.6,9.1,0.5C72.7,74.5,76.2,75.7,78,77.1"/>
				<path class="st5" d="M68.6,78.1c-2.6-0.5-4.7-0.8-6.2-0.8c-0.2,0.9-0.2,2.1-0.1,3.7c0.1,1.8,0.4,3.6,0.8,5.2
					c0.4,1.6,1.3,3.8,2.6,6.7c0.9-2.3,2.4-4.9,4.5-8c1.3-1.9,2.6-3.7,3.9-5.3C72.8,79,70.9,78.6,68.6,78.1 M75.3,78.8
					c0.2,0.1,0.3,0.2,0.3,0.2c0,0.1,0,0.2-0.2,0.4c-1.1,1.4-2.4,2.9-3.7,4.8c-2.6,3.6-4.4,6.7-5.4,9.1c-0.2,0.6-0.5,0.9-0.6,0.9
					c-0.2,0-0.4-0.3-0.6-0.9c-1.4-3-2.3-5.3-2.7-7c-0.5-1.8-0.8-3.9-0.8-6c0-2.2,0.2-3.5,0.7-4c0.3-0.3,0.6-0.5,0.7-0.4
					c0.1,0.1,0.1,0.2-0.2,0.6c1.8,0,4.1,0.3,6.9,0.9C72.4,77.9,74.3,78.4,75.3,78.8"/>
				<path class="st5" d="M105.8,85.4c-0.4,4.3-1.8,7.4-4.1,9.5c-2.2,2-5.1,2.8-8.7,2.5c-2.9-0.3-4.8-1.8-5.7-4.4
					c-0.4-1.1-0.5-2.2-0.2-3.3c0.2-1.1,0.7-2.1,1.5-2.8c0.6,0.2,0.8,0.3,0.7,0.5c-0.6,0.5-1.1,1.3-1.2,2.3c-0.2,1-0.1,2,0.2,3
					c0.8,2.4,2.4,3.8,4.9,4c3.6,0.4,6.4-0.7,8.5-3.1c1.8-2,2.9-4.8,3.2-8.2c0.4-4.2-0.6-8-3.2-11.3s-5.9-5.2-10-5.6
					c-2.9-0.3-5.6,0.5-8.1,2.5c-2.7,2.1-4,4.6-3.7,7.6c0.1,0.7,0,1.1-0.2,1.1c-0.2,0-0.3-0.3-0.4-1.1c-0.2-3.3,0.9-6.1,3.5-8.3
					c2.6-2.2,5.6-3.2,9-2.8c4.3,0.4,7.8,2.5,10.6,6C105.1,76.9,106.3,80.9,105.8,85.4"/>
				<path class="st5" d="M90.7,87.2c1.1,0.6,1.7,1.3,1.8,2c0.1,0.6,0,0.9-0.2,1c-0.3,0-0.4-0.3-0.5-0.9c-0.1-0.5-0.6-1.1-1.6-1.6
					c-0.6-0.3-1.6-0.7-2.9-1.1l-1.8-0.7c-0.6-0.3-1-0.6-1.3-0.9c-0.2-0.3-0.3-0.4-0.2-0.5c0.1-0.1,0.2,0,0.5,0.2
					c0.3,0.3,0.8,0.5,1.4,0.7l1.7,0.5C88.9,86.4,90,86.9,90.7,87.2"/>
			</g>
			<path class="st2" d="M166,139l-13-0.2l1.4-84.4l-5.1-0.1l0.2-10.8l16.8,0.3l-1,59.2l0.2,0l9.9-20.2l10.6,0.5l-9.3,18.3l9.5,25.4
				l4.8,0.1l-0.2,10.8l-12.7-0.2l-12.6-34.1l-0.2,0l-0.6,35.4 M148,137.2"/>
			<path class="st2" d="M255.4,125.5l10.1,3.4c-1.7,4.1-4,7.2-7.1,9.3s-6.6,3-10.4,2.8c-6.2-0.4-10.6-2.6-13.3-6.8
				c-2.7-4.2-3.7-10.6-3.2-19.3c0.5-8.7,2.3-15.2,5.5-19.3c3.1-4.1,7.8-6,13.9-5.6c5,0.3,9.1,2.3,12.1,6c3,3.7,4.3,8.9,3.9,15.5
				l-0.4,7.4l-22.8-1.3l-0.1,2.1c-0.3,4.4,0,7.6,0.8,9.8c0.8,2.2,2.3,3.3,4.4,3.5C252.3,133.2,254.5,130.7,255.4,125.5z M244,110.6
				l11.1,0.6l0.2-4.3c0.4-6.1-1.3-9.2-5.1-9.4c-2.1-0.1-3.6,0.7-4.5,2.4c-0.9,1.7-1.4,4.6-1.7,8.5L244,110.6z"/>
			<path class="st2" d="M298.5,106.6l4.4,24.7l5,0.8l-1.8,10.7l-12.9-2.2l-2.8-20.9l-0.2,0l-9.8,18.8l-11.1-1.9l17.7-30.4l-4.1-22.6
				l-4.5-0.8l1.8-10.7l12.6,2.1l2.5,18.5l0.2,0l8.4-16.7l11.4,1.9L298.5,106.6z"/>
		</g>
	</g>
</g>
<g>
	<path class="st5" d="M270.8,55.4l9.7-5.9l-0.2,2.4c-0.2,2.5-0.4,4.8-0.4,7.1c-0.1,2.7,0,4.3,0.2,4.9l0.7,1.1l0.9,1.6
		c0.2,0.5,0.2,0.9,0,1.3c-0.4,0.8-1.2,1-2.4,0.6l0,0l0,0.1l-0.6,1.2c-0.3,0.4-0.7,0.7-1.2,0.8c-0.9,0.1-1.5-0.5-2.1-1.7l-0.1,0.1
		c-0.7,0.4-1.4,0.6-1.8,0.4c-0.5-0.2-0.8-0.6-0.8-1.2c0-0.4,0.1-1,0.3-2l0.3-1.5c0-1.7-0.2-3-0.5-3.9l-0.9-2.5l-0.7-1.7L270.8,55.4"
		/>
	<path class="st10" d="M277.8,57.6l0.8,0c-0.2,3.6-0.1,5.8,0.2,6.7l1,1.6c0.5,0.8,0.7,1.2,0.6,1.4l-0.8,0l-1.1-0.2
		c-0.2,0.1-0.4,0.4-0.6,1.1c-0.2,0.7-0.5,1-0.7,1c-0.3,0-0.5-0.3-0.8-0.9c-0.3-0.7-0.5-1-0.8-1c-0.2,0-0.6,0.2-1.1,0.5
		c-0.4,0.3-0.7,0.4-0.8,0.3c-0.1-0.1-0.1-0.6,0.2-1.5l0.4-2c-0.1-2.7-0.3-4.3-0.5-5l-0.2-0.8C275.6,58,276.9,57.6,277.8,57.6"/>
	<path class="st11" d="M278.6,57.6l-0.8,0c-0.9,0-2.2,0.4-4,1.2l-0.9-3.3l6.2-3.7L278.6,57.6"/>
	<path class="st5" d="M332,75.6c0.3,5.9-0.8,11.6-3.5,17.2c-3,6.2-7.5,11.3-13.4,15.5c-3.7,2.7-8.8,5.6-15.2,8.7
		c-4,1.9-7.8,2.9-11.7,2.9c-3.8,0.1-6.1-0.8-6.9-2.5c-0.5-1.2,0.3-2.9,2.4-5.1c2.2-2.2,5.5-4.8,10.2-7.8l3.9-2.4
		c1.8-1,3.4-1.8,4.7-2.2c1.8-0.5,3.4-0.5,4.8-0.1c0.8,0.2,1.9,0.6,3.4,1.2l1,0.3l0.8,0c5-3.5,8.7-7.9,11.3-13.1
		c2.2-4.5,3.2-8.9,2.9-13.2c-0.1-2.6-0.8-4.9-2-6.9c-1.1-1.9-2.5-3.3-4.2-4.1c-3.6-1.9-8.5-0.5-14.6,4c-3.7,2.7-8.9,7.6-15.6,14.7
		l-1.5,1.6l-3.1,3.6l-2.2,2.6c-5.9,7-10.6,11.3-14,13.1c-5.1,2.5-11.3,2.5-18.7-0.2c-8.2-3-12.7-10.2-13.6-21.7
		c-0.3-3.6-0.2-7.4,0.3-11.5l0.9-5.1l0.8-1.1l6.7,1.4l-0.3,1.2c-0.3,1.3-0.6,2.8-0.9,4.7c-0.6,3.4-0.8,6.6-0.8,9.6
		c0.2,9.4,3.2,15.1,9.2,17.2l8.9,1.1c3.5-0.3,6.5-1.6,8.9-3.8c2.7-2.4,5-4.6,7-6.7c2-2.1,4.5-5,7.6-8.6c7.4-8.9,14.3-15.1,20.7-18.6
		c6.6-3.6,12.1-4.2,16.5-1.7c2.7,1.5,4.8,3.4,6.3,5.6C330.7,68.2,331.8,71.6,332,75.6"/>
	<path class="st11" d="M244,66.4l-0.5,2.2c-0.3,1.7-0.6,3.5-0.8,5.4l-1.4-0.3c-0.4,0-1.3,0.5-2.6,1.4c0.2-3.6,0.6-6.8,1.2-9.5
		L244,66.4"/>
	<path class="st10" d="M328,75.3c-0.2-2.9-0.9-5.5-2.3-7.9c-1.3-2.4-3-3.9-4.8-4.7c-4.1-1.7-9.1-0.5-15,3.6
		c-4.2,2.9-10.3,8.6-18.2,16.9l-2.7,3.1l-2.6,3.1l-6.6,7.2c-2.3,2.3-4.5,4-6.6,5.1c-4.9,2.7-10.8,2.8-17.7,0.2
		c-5.3-1.9-9-5.8-11.1-11.6c-1.5-4.3-2.1-9.4-1.8-15.4c1.3-0.9,2.1-1.4,2.6-1.4l1.4,0.3c-0.6,5.8-0.4,10.7,0.5,14.6
		c1.4,5.7,4.4,9.4,8.9,11c6,2.2,11.4,2,16.1-0.5c3.1-1.7,7.2-5.4,12.2-11.1c2-2.4,3.8-4.3,5.2-5.8c6.4-7.1,11.8-12.3,16.2-15.6
		c8.2-6.1,14.9-8,20.3-5.4c2.4,1.1,4.2,2.9,5.6,5.5s2.2,5.6,2.4,9c0.3,5.1-0.6,10.2-2.9,15.3c-2.6,6.1-6.8,11.1-12.4,15l-1.5,1.1
		c-2.8,1.9-7.3,4.3-13.6,7.2c-5.3,2.5-9.3,3.8-12.2,3.9c-2.1,0.1-3.4-0.5-3.9-1.7c-0.3-0.7,2.1-2.9,7-6.6c4.5-3.4,7.9-5.7,10.1-6.9
		c1.8-1,3.8-1.3,6.1-0.9l4.1,1.1l1,0.1l0.5,0c5.3-3.7,9.4-8.3,12.2-13.8C327.2,84.5,328.3,79.8,328,75.3"/>
	<path class="st10" d="M255.3,75.6c-0.1,2-0.1,3.1,0,3.4c0.5,1.7,3.2,5.1,8.2,10.3l9.7,10.2c1.5,1.9,2.3,3.5,2.6,4.7
		c0.1,0.9-0.1,1.8-0.7,2.7c-0.1,0.6-0.3,1.1-0.7,1.5c-0.4,0.4-0.9,0.7-1.5,0.7c-1.2,1.7-3,1.3-5.3-1.2c-1.5-1.6-3.2-4-5.1-7.1
		c-0.6-1-2.6-3-6.2-6.1l-8.1-7c-1.6-1.5-2.3-3.1-2-4.7c0.3-1.6,1.4-3.3,3.5-5.2l0.1-5.9c1.2-0.1,3.2-0.5,6-1.4L255.3,75.6"/>
	<path class="st11" d="M285.2,114.3c1.5-1.2,3.3-2.5,5.6-3.7c1.4-0.7,3.2-1.6,5.4-2.6c1.5-0.7,2.9-1.2,4.2-1.6
		c1.7-0.5,3-0.7,3.9-0.6c1.9,0.2,3.3,0.6,4.2,1.1c0.6,0.4,0.9,0.9,0.7,1.6c-0.1,0.7-0.7,1.3-1.7,1.8l-7.8,3.9
		c-5.3,2.5-9.3,3.8-12.2,3.9c-2.1,0.1-3.4-0.5-3.9-1.7c-0.1-0.2,0.1-0.4,0.4-0.9C284.3,115.1,284.7,114.7,285.2,114.3"/>
	<path class="st11" d="M249.7,72c2.7-0.5,4.7-1.1,6.1-1.6l-0.4,5.3c-0.7-0.4-1.7-0.6-2.9-0.5c-1.1,0-2,0.2-2.5,0.5L249.7,72"/>
	<path class="st11" d="M258.7,96.4c3.2,1.8,6.5,4.5,9.9,8.1c1.1,1.1,2.4,1.5,3.9,1.2c1.6-0.4,2.5-1.5,2.5-3.4
		c0.5,0.7,0.8,1.5,0.8,2.5c0.1,0.9-0.1,1.6-0.4,2.1c-0.5,1.4-1.2,2.2-2.1,2.3c-1.5,1.4-3.3,1-5.5-1.2c-1.6-1.6-3.3-4-5.2-7.2
		l-1.7-2.1L258.7,96.4"/>
	<path class="st5" d="M256.7,67.8l-0.2,1.7l-0.3,3.8c-0.2,2.7-0.3,4.5-0.3,5.5c0,0.7,1.1,2.2,3.1,4.7c2.3,2.9,5.5,6.3,9.5,10.4
		l0.7,0.7c2.9,2.9,4.9,5.2,6,7c1.5,2.5,1.7,4.4,0.5,5.9l-0.1,0.7c-0.2,0.5-0.5,1-1,1.3c-0.2,0.2-0.6,0.3-1.2,0.4
		c-0.2,0.5-0.6,0.8-1.2,1c-0.5,0.2-1,0.3-1.4,0.2c-1.5-0.2-3-1.2-4.6-3.2c-0.9-1.1-2-2.8-3.2-5l-0.3-0.5c-0.5-0.9-1.2-1.8-2-2.6
		l-2.8-2.4l-3.1-2.6c-1-0.9-2.2-2-3.6-3c-1.4-1.2-2.4-2-3-2.6c-1-0.9-1.8-1.9-2.4-2.9c-0.9-1.4-0.9-3,0-4.8c0.5-0.9,1.3-2,2.5-3.3
		l0.3-0.3c0.2-0.8,0.1-3.1-0.2-7.1l-0.1-1.1L256.7,67.8 M250.6,70.3l0,7.8l-2.5,2.6c-1.3,1.7-1.5,3.1-0.7,4.4
		c0.8,1.2,1.9,2.5,3.3,3.7l4.7,4.1l3.7,3.3l3,3c0.7,0.8,1.3,1.6,1.8,2.5c1.1,2,2.3,3.7,3.7,5.1c1.9,1.9,3.5,2.6,4.8,2.1l0-0.6
		c-0.2-1.1-0.9-2.5-2.2-4.4l-1.9-2.5l2.4,2.4c1.6,1.7,2.5,3.2,2.7,4.4c0,0.2,0.2,0.1,0.6-0.2c0.4-0.3,0.5-0.8,0.4-1.5
		c-0.1-0.7-0.6-1.7-1.6-3.2l-1.3-2c0.4,0.2,0.8,0.6,1.4,1.2c1,1,1.7,2,2.1,3c0.2-1.4-0.4-3.1-1.8-4.9l-5.5-5.8l-2.3-2.3l-7.4-7.9
		c-2.4-2.7-3.6-4.6-3.6-5.5l0.2-1.9l0.3-2.5l0.4-5.2L250.6,70.3"/>
	<path class="st10" d="M276.9,29.6c-0.5,2.1-0.8,3.9-0.7,5.6c0.1,1.9,0.5,3.7,1.3,5.5c0.7,1.7,2.5,3.3,5.2,4.9
		c2.3,1.3,4.2,2.1,5.8,2.4l0.4,0.9c-3.3,1.3-8,3.7-14.3,7.1c-5.6,3.1-9.9,6.5-13,10.3c-2.2,2.8-5.7,4.5-10.5,5.3
		c-5.2,0.8-9.3-0.2-12.4-3c-1,0.4-1.8,0.8-2.3,1.2c-0.3,0.2-0.8,1.2-1.5,2.8l-2,4.6c-1.5,3.9-2.3,7.6-2.4,11
		c-0.2,5-0.8,9.5-1.9,13.5c-1.3,4.6-2.8,6.9-4.6,6.9c-0.5,0.8-1.3,1.2-2.4,1.3c-1,0-1.8-0.3-2.2-1.1c-1.6,0.2-2.8-0.8-3.5-3
		c-0.6-1.8-0.8-3.7-0.6-5.7c0.2-1.9,1.4-4.9,3.3-9c1.8-3.7,3.4-6.6,5-8.8c0.5-0.7,1.4-2.4,2.5-5l2.9-6.7c0.8-1.8,1.3-3.7,1.4-5.6
		l0-5.5c-0.1-3.1,0.3-5.9,1.2-8.4c0.9-2.6,2.5-5.1,4.6-7.6c1.9-2.2,5.3-3.9,10.2-5.1c3.5-0.8,7.5-1.3,12.2-1.6
		c3-0.1,6.5-1.1,10.4-2.8C271.1,33,273.8,31.5,276.9,29.6"/>
	<path class="st11" d="M215.3,103.1c-0.1-3.6,0.9-7.2,2.9-10.8c-0.6,3.2-0.5,5.8,0.4,7.6c0.7,1.6,1.9,2.5,3.4,2.7
		c1.5,0.2,2.9-0.2,4.4-1.3c1.5-1.2,2.6-2.7,3.2-4.7c-0.4,2.9-1,5.4-1.8,7.5c-1.1,2.7-2.3,4.2-3.8,4.6c-0.8,0.7-1.5,1.1-2.3,1.1
		c-0.9,0.1-1.6-0.2-2.2-0.8C216.7,109,215.4,107,215.3,103.1"/>
	<path class="st5" d="M280.9,27.8l12.9,18l0.6,1.3l-1.3,0.6l-10.2,4.9c-7.2,3.6-12.1,6.4-14.5,8.3c-1.9,1.5-3.6,3.2-5.1,5.1
		c-1.1,1.3-2.2,2.4-3.3,3.2c-1.7,1.2-3.8,2.1-6.3,2.7c-3.3,0.8-6.6,0.9-9.6,0.3c-2.7-0.5-4.5-1.4-5.5-2.6l-1.3,0.8
		c-0.5,0.4-1.4,1.9-2.6,4.7c-1.2,2.7-2,4.8-2.4,6.4l-0.5,2.3l-0.3,2.7l-0.4,4.2c-0.4,4.7-0.8,8.1-1.2,10c-0.9,4.2-2.4,7-4.4,8.5
		c-0.2,0.2-0.6,0.3-1.2,0.3c-1.1,1.2-2.4,1.6-3.9,1.1c-0.2-0.1-0.5-0.3-0.8-0.5l-0.3-0.4c-1.1,0.1-2-0.1-2.9-0.8
		c-0.8-0.6-1.4-1.5-1.7-2.7c-0.9-2.9-0.4-6.8,1.5-11.5c1.2-3.1,2.8-6,4.7-8.9c1.7-2.6,3.3-5.3,4.7-8.2l3.1-7.1
		c0.7-1.7,1.1-3.2,1.3-4.6c0.1-1.1,0.2-2.6,0-4.6c-0.2-3.6,0-6.8,0.8-9.6c0.8-3,2.3-5.8,4.5-8.2c2.2-2.5,5.2-4.3,9-5.3
		c2.2-0.6,5.8-1.1,10.7-1.5l4.9-0.5c3.5-0.4,7.8-2,12.7-4.7c2.5-1.4,4.6-2.7,6.3-4l1.4-1.3L280.9,27.8 M273.2,32.5
		c-5.1,2.9-9.5,4.5-13.3,5L246.9,39c-4.4,0.9-7.9,2.8-10.3,5.6c-2.5,2.8-4.2,5.9-5,9.3c-0.5,2.2-0.7,4.6-0.6,7.2
		c0.1,2.1,0.1,3.7,0,4.9c-0.2,1.5-0.6,3.1-1.3,5L225,81.8l-2.1,3.1c-1,1.5-1.8,2.8-2.4,4c-2.2,4.5-3.5,8.4-4.1,11.6
		c-0.7,4.1,0.1,6.8,2.4,7.9c0.3,0,0.5,0,0.6-0.2c1-1.2,1.6-2.5,1.7-4l0.1-2.5l0-1.1l0.5,1.1c0.3,0.9,0.4,1.8,0.3,2.6
		c-0.2,1.7-0.8,3.2-1.9,4.5l0.6,0.4c0.5,0.2,1.2,0.1,1.9-0.3l0.6-0.6l0.3-0.7c0.3-0.8,0.4-2.1,0.5-3.8l-0.1-2.4l0.3,0.7
		c0.2,0.6,0.4,1.2,0.5,1.9c0.1,1.2,0,2.4-0.3,3.7c1.5-1.4,2.7-3.8,3.5-7.3c0.5-2.2,1-5.1,1.3-8.6l0.2-2.6l0.4-5
		c0.1-0.9,0.3-2,0.6-3.2c0.4-1.7,1.2-3.9,2.5-6.6c1.3-3.1,2.4-4.8,3.1-5.3l2.1-1.4c1.7-1.2,3-2.2,3.9-3c2.1-2,3.8-4.6,5.2-7.7
		c1-2.2,1.7-4.1,2.1-5.5c0.3-1.1,0.4-2.2,0.4-3.1c0-0.8,0.1-1.2,0.5-1.3c0.4,0,0.6,0.3,0.6,1.1c0.1,1.1,0,2.2-0.3,3.3
		c-0.3,1.7-1,3.7-2,6c-1.9,4.5-5,8.2-9.2,11.2c1.5,1,3.2,1.7,5.1,2c2.8,0.5,5.8,0.3,8.9-0.6c2.8-0.8,5.3-2.2,7.3-4.3
		c3.6-3.6,5.7-5.7,6.5-6.2c2.5-1.9,7.5-4.7,14.8-8.4c3.7-1.8,7.1-3.5,10.2-4.9l-12.9-18C277.8,29.7,275.7,31.1,273.2,32.5"/>
	<path class="st10" d="M269.5,43.3l-1.4,4.9c-0.2,0.6-0.3,1.4-0.4,2.5c-0.1,0.9-0.1,1.6-0.1,2.3c0,0.3,0.2,1,0.6,1.9
		c0.4,0.8,0.5,1.3,0.3,1.3l-1.1-0.4l-1.3-0.2c-0.2,0.1-0.4,0.5-0.7,1.4c-0.3,0.8-0.6,1.2-0.9,1.2c-0.3,0-0.5-0.4-0.8-1.2l-0.7-1.5
		c-0.2-0.2-0.7-0.1-1.4,0.2c-0.7,0.3-1.1,0.4-1.2,0.3c-0.1-0.2,0.2-0.7,0.9-1.5l1.3-1.8c0.8-1.6,1-3.7,0.7-6.4l-0.7-3.6L269.5,43.3"
		/>
	<path class="st5" d="M268.9,57.3l-0.9,0l-0.9-0.3l-0.4-0.2l-0.1,0.3l-0.7,1.5c-0.4,0.5-0.9,0.8-1.5,0.7c-0.5-0.1-1-0.3-1.3-0.8
		l-0.6-1.5l-0.1-0.3l-0.3,0.1c-1.4,0.6-2.3,0.5-2.7-0.4c-0.2-0.4-0.2-0.9,0.1-1.4l1.1-1.6l1.4-1.6c0.2-0.6,0.3-1.8,0.3-3.5
		c0-1.6-0.1-2.9-0.3-3.8l-0.3-1.7c-0.1-0.4,0.1-0.6,0.4-0.5c0.4,0.1,0.6,0.5,0.8,1.2c0.3,1.4,0.5,2.8,0.6,4.1
		c0.1,2.1-0.2,3.8-0.8,5.1l-1.3,1.8c-0.7,0.8-1,1.4-0.9,1.5c0.1,0.1,0.5,0,1.2-0.3c0.7-0.3,1.2-0.4,1.4-0.2l0.7,1.5
		c0.3,0.8,0.5,1.2,0.8,1.2c0.3,0,0.6-0.4,0.9-1.2c0.3-0.9,0.5-1.4,0.7-1.4l1.3,0.2l1.1,0.4c0.1,0,0-0.5-0.3-1.3
		c-0.4-1-0.6-1.6-0.6-1.9c0-0.6,0-1.4,0.1-2.3c0.1-1.1,0.2-1.9,0.4-2.5l1.3-4.6c0.3-0.3,0.6-0.4,0.9-0.4c0.4,0,0.6,0.3,0.6,0.7
		c0,0.2-0.2,0.7-0.6,1.5l-1.1,3.2c-0.3,1-0.5,2.5-0.5,4.4c0,0.2,0.2,0.7,0.5,1.4l0.5,1.2c0.1,0.4,0.1,0.7-0.1,1
		C269.5,57,269.2,57.2,268.9,57.3"/>
	<path class="st5" d="M320.6,31.6c0.4,1.8,0.5,3.8,0.3,5.9c-0.3,2.9-1.2,5.4-2.6,7.3c-1.4,1.8-3.2,3.1-5.5,3.9
		c-0.8,1.9-2,3.5-3.4,4.9c-2.2,2.2-4.8,3.4-7.7,3.5c-4.4,0.2-7.8-0.9-10.4-3.2c-1.6-1.4-2.7-3.1-3.3-5.1c-3-0.5-6-2.2-9.2-5
		c-1.9-1.7-3-4.2-3.2-7.5c-0.1-2,0-4,0.4-5.9c-1.1-2.8-1.7-4.9-1.8-6.3c-0.2-2-0.1-4,0.1-6.1c0.2-2.2,0.6-3.6,1.2-4.2
		c0.6-0.6,2.2-0.7,4.8-0.2c2.3,0.4,4.7,1.2,7.2,2.2c3.1-1.4,6.9-2,11.2-1.8c5.4,0.3,9.4,1.6,12,3.8c1-0.3,2.3-0.5,4.1-0.5
		c2-0.1,3.6,0,4.9,0.3c0.9,0.2,1.6,0.5,1.8,0.9c0.2,0.3,0.3,1,0.3,2.3c0,1.3-0.2,2.5-0.5,3.6c-0.3,1.4-1,2.6-2.1,3.8
		C319.9,29.1,320.3,30.2,320.6,31.6"/>
	<path class="st10" d="M320.7,21c-0.1,0.9-0.3,1.9-0.6,3.1c-0.3,1.2-0.9,2.2-1.6,3c-0.4-0.9-0.7-1.2-1-1.1c-0.2,0.1-0.2,0.4,0,0.8
		l0.4,1l1.1,2.5c0.6,2,0.8,4.4,0.6,7.1c-0.2,2-0.9,4-2.2,6c-1.3,2-2.8,3.2-4.3,3.6l0.2-1.3c0-0.3-0.1-0.4-0.3-0.4
		c-0.2,0-0.4,0.1-0.5,0.4l-0.6,1.6c-0.5,1.3-1.2,2.6-2.3,3.9c-2.1,2.6-4.6,3.9-7.7,4.1c-4,0.2-7.3-1.1-10-3.7
		c-0.9-0.8-1.6-1.7-2.2-2.7l-0.7-1.3l-0.6-1.1c-0.4-0.7-0.8-1-1-0.8l0.1,0.8l0.1,0.7c-2.6-0.9-5.1-2.3-7.6-4.4c-1.9-1.6-3-4-3.1-7.3
		c-0.1-1.6,0.1-3.4,0.4-5.3l0.4-2.1c0.1-0.9,0.1-1.3-0.2-1.4c-0.1,0-0.3,0.3-0.5,0.9l-0.3,0.9c-0.7-1.9-1.1-3.5-1.3-4.6
		c-0.1-1.5-0.1-3.2,0-5.1c0.1-2.3,0.4-3.8,0.9-4.3c0.5-0.6,2.6-0.3,6.1,0.9c1.7,0.6,3.4,1.3,5.1,2l2.5-1.1c2.3-0.7,5.2-1,8.6-0.8
		c4.1,0.2,7.2,0.9,9.4,1.9c0.6,0.3,1.5,0.9,2.5,1.8l1.3,1.4c0.6,0.6,1,0.8,1.1,0.7c0.2-0.2-0.2-0.9-1.3-2.2l3.2-0.3
		c3.4-0.2,5.3,0,5.7,0.6C320.7,19.5,320.8,20.1,320.7,21"/>
	<path class="st11" d="M280.4,24.6c-0.4,0.5-0.8,0.7-1.4,0.6c-0.7-0.1-1.1-0.7-1.4-1.8c-0.3-1-0.3-2.3-0.2-3.9l0.3-2.1l1.4,1.7
		c1,1.2,1.6,2.1,1.8,2.6C281.2,22.8,281.1,23.7,280.4,24.6"/>
	<path class="st6" d="M290,30.2c0.4,0,1,0.4,1.7,1.2c0.8,0.9,1.5,2,2.2,3.3c0.6,1.2,0.9,2.7,0.9,4.4c-0.1,1.5-0.3,2.4-0.7,2.7
		c-0.3,0.2-0.9,0.3-1.8,0.2l-3-0.6c-1.5-0.4-2.8-0.8-3.8-1.3c-1.4-0.7-2.1-1.5-2.2-2.3c0.7-2.6,1.7-4.6,3.2-6
		C287.7,30.7,288.9,30.1,290,30.2"/>
	<path class="st12" d="M290.6,30.2c0.9,0.6,1.6,1.4,2.1,2.5c0.4,1.1,0.6,2.2,0.5,3.5c-0.1,1.2-0.4,2.2-1,3.2s-1.2,1.7-2,2.2l-3.7-1
		c-1.7-0.6-2.7-1.4-3-2.3c-0.3-0.9,0.2-2.4,1.4-4.5c0.8-1.5,1.9-2.6,3-3.3C289,29.9,289.9,29.8,290.6,30.2"/>
	<path class="st6" d="M286.1,38.5c-0.5,0-0.8-0.3-1.1-0.9c-0.3-0.6-0.4-1.2-0.3-1.9s0.3-1.3,0.7-1.8c0.4-0.5,0.8-0.7,1.2-0.7
		c0.4,0,0.8,0.3,1.1,0.9c0.3,0.6,0.4,1.2,0.3,1.9c-0.1,0.7-0.3,1.3-0.6,1.8C286.9,38.3,286.5,38.5,286.1,38.5"/>
	<path class="st5" d="M295.1,32.7c-0.2-0.6-0.4-1.1-0.8-1.6c-0.4-0.6-0.8-1.1-1.3-1.4l-0.4-0.2l-0.1-0.2l0.3-0.1l0.5,0.1
		c0.6,0.3,1.1,0.9,1.5,1.7c0.3,0.6,0.6,1.1,0.7,1.6l0.1,0.6l0,0.4C295.4,33.6,295.3,33.3,295.1,32.7"/>
	<path class="st6" d="M308.6,43.5c-0.8-0.9-0.6-2.9,0.6-5.8c1.2-3,2.6-4.6,4.1-5c1.3-0.3,2,0.6,2.2,2.6c0.2,1.8,0,3.3-0.6,4.6
		c-0.4,1-1.4,1.9-2.8,2.8C310.5,43.6,309.4,43.9,308.6,43.5"/>
	<path class="st12" d="M310.6,34.9c0.6-0.8,1.1-1.2,1.4-1.1c0.8,0.4,1.4,1.2,1.7,2.3c0.3,1.2,0.3,2.5-0.1,4l-0.8,2.2
		c-0.3,0.4-1,0.8-2,1.1c-1,0.3-1.7,0.4-2.1,0.2c-0.5-0.2-0.7-0.8-0.6-1.8c0.1-1,0.3-2.2,0.9-3.6C309.4,36.8,309.9,35.8,310.6,34.9"
		/>
	<path class="st6" d="M309.8,41c-0.4,0-0.7-0.3-0.9-0.8c-0.2-0.5-0.3-1-0.2-1.7s0.2-1.2,0.6-1.6c0.3-0.4,0.7-0.6,1.1-0.6
		c0.4,0,0.7,0.3,0.9,0.8c0.2,0.5,0.3,1.1,0.3,1.7c-0.1,0.6-0.3,1.2-0.6,1.6C310.5,40.9,310.2,41.1,309.8,41"/>
	<path class="st5" d="M308.8,33.9c-0.2-0.1-0.2-0.4,0-0.8c0.2-0.4,0.5-0.9,0.8-1.3c0.2-0.3,0.6-0.6,1.1-0.8c0.5-0.2,0.7-0.3,0.7-0.1
		c0.1,0.2,0,0.3-0.2,0.4c-0.5,0.2-1,0.5-1.3,0.9c-0.5,0.7-0.8,1.2-0.9,1.5C309.1,33.9,309,34,308.8,33.9"/>
	<path class="st5" d="M292.1,30.9c1.1,1.5,1.6,3.3,1.4,5.5c-0.1,1.1-0.4,2.2-0.9,3.2c-0.5,0.9-1.1,1.7-1.9,2.3l-1-0.3
		c0.8-0.5,1.5-1.2,2-2.1c0.6-1,0.9-2,1-3.2c0.1-1.3-0.1-2.5-0.7-3.6c-0.5-1.1-1.3-1.9-2.3-2.5L292.1,30.9"/>
	<path class="st5" d="M293.6,34.8c-0.6-1.2-1.3-2.2-2-3c-0.7-0.8-1.2-1.2-1.6-1.2c-1,0-2,0.4-3,1.4c-1.3,1.1-2.2,2.7-2.9,4.8
		c-0.2,0.5-0.2,0.9-0.2,1.3c0,0.4,0.2,0.7,0.6,1c0.9,0.9,2.6,1.6,4.9,2.1l2.9,0.6c0.8,0.1,1.3,0,1.6-0.2c0.4-0.3,0.6-1.2,0.6-2.5
		C294.5,37.3,294.2,35.9,293.6,34.8 M292.5,31c0.9,0.9,1.6,2,2,3.4c0.5,1.6,0.8,3.1,0.8,4.7c0,1.6-0.3,2.6-0.9,3.1
		c-0.4,0.3-1.1,0.4-2.2,0.3l-3.3-0.6c-2.1-0.4-3.7-1.2-4.9-2.2c-0.6-0.5-0.9-1-1-1.6c-0.1-0.5,0-1.1,0.2-1.8c0.8-2.2,1.8-4,3.2-5.2
		c1.2-1.1,2.4-1.6,3.7-1.5C290.8,29.6,291.6,30.1,292.5,31"/>
	<path class="st5" d="M313.2,33.2c-1.3,0.3-2.4,1.6-3.5,4.1c-1.1,2.3-1.4,4.1-1,5.3c0.1,0.3,0.3,0.5,0.6,0.6
		c0.8,0.1,1.8-0.2,3.1-1.1c1.2-0.8,2-1.6,2.3-2.4c0.5-1.1,0.7-2.5,0.6-4.1C315.1,33.7,314.4,33,313.2,33.2 M315.4,33
		c0.6,0.7,0.9,1.9,0.7,3.5c-0.1,1.3-0.4,2.5-0.9,3.5c-0.3,0.7-0.9,1.4-1.6,2c-0.8,0.7-1.6,1.2-2.5,1.5l-1.9,0.5
		c-0.7,0-1.2-0.3-1.4-0.8c-0.4-1-0.3-2.4,0.3-4.3c0.5-1.6,1.2-2.9,1.9-4c1-1.5,1.9-2.3,2.9-2.6C314,32.1,314.8,32.3,315.4,33"/>
	<path class="st5" d="M312.1,33.3c0.9,0.4,1.5,1.4,1.8,2.8c0.3,1.5,0.2,3-0.3,4.7l-0.5,1.3l-1,0.5l0.8-2c0.4-1.4,0.5-2.7,0.2-4
		c-0.3-1.2-0.8-2-1.6-2.4l-0.5-0.2c0.3-0.4,0.5-0.6,0.9-0.8L312.1,33.3"/>
</g>
</svg>
